<?xml version="1.0" encoding="UTF-8"?>
<svg width="18" height="21" viewBox="0 0 18 21" fill="none" xmlns="http://www.w3.org/2000/svg">
    <path d="M16.7695 10.1453C16.039 9.29229 15.7071 8.55305 15.7071 7.29716V6.87013C15.7071 5.23354 15.3304 4.17907 14.5115 3.12459C13.2493 1.48699 11.1244 0.5 9.04423 0.5H8.95577C6.91935 0.5 4.86106 1.44167 3.577 3.0128C2.71333 4.08842 2.29293 5.18822 2.29293 6.87013V7.29716C2.29293 8.55305 1.98284 9.29229 1.23049 10.1453C0.676907 10.7738 0.5 11.5815 0.5 12.4557C0.5 13.3309 0.787226 14.1598 1.36367 14.8336C2.11602 15.6413 3.17846 16.1569 4.26375 16.2466C5.83505 16.4258 7.40634 16.4933 9.0005 16.4933C10.5937 16.4933 12.165 16.3805 13.7372 16.2466C14.8215 16.1569 15.884 15.6413 16.6363 14.8336C17.2118 14.1598 17.5 13.3309 17.5 12.4557C17.5 11.5815 17.3231 10.7738 16.7695 10.1453Z" fill="currentColor" />
    <path opacity="0.4" d="M11.0097 17.7285C10.5098 17.6217 7.46364 17.6217 6.96372 17.7285C6.53636 17.8272 6.07422 18.0568 6.07422 18.5604C6.09907 19.0408 6.38033 19.4648 6.76992 19.7337L6.76893 19.7347C7.27282 20.1275 7.86416 20.3773 8.48334 20.4669C8.8133 20.5122 9.14923 20.5102 9.49111 20.4669C10.1093 20.3773 10.7006 20.1275 11.2045 19.7347L11.2035 19.7337C11.5931 19.4648 11.8744 19.0408 11.8992 18.5604C11.8992 18.0568 11.4371 17.8272 11.0097 17.7285Z" fill="currentColor" />
</svg>